/* XPM */
static char *Free_Converter_com_32x32_55555319[] = {
/* columns rows colors chars-per-pixel */
"32 32 58 1 ",
"  c #01499E",
". c #01499F",
"X c #034CA1",
"o c #034DA1",
"O c #0350A3",
"+ c #0450A3",
"@ c #0451A4",
"# c #0553A5",
"$ c #0553A6",
"% c #0554A6",
"& c #0757A7",
"* c #0757A8",
"= c #0758A8",
"- c #065AAA",
"; c #065BAA",
": c #075BAA",
"> c #015EAD",
", c #025EAD",
"< c #0060AF",
"1 c #0061AF",
"2 c #0061B0",
"3 c #0062B0",
"4 c #0064B2",
"5 c #0067B5",
"6 c #0068B5",
"7 c #0068B6",
"8 c #0069B7",
"9 c #006AB7",
"0 c #006BB7",
"q c #006BB8",
"w c #006EBA",
"e c #0072BD",
"r c #0075BF",
"t c #0075C0",
"y c #0078C2",
"u c #007BC5",
"i c #007CC5",
"p c #007EC7",
"a c #007FC7",
"s c #0082CA",
"d c #0085CC",
"f c #0088CF",
"g c #018BD1",
"h c #018CD2",
"j c #028CD2",
"k c #0095D9",
"l c #009CDD",
"z c #009CDE",
"x c #009DDE",
"c c #009EDF",
"v c #009FE0",
"b c #00A0E0",
"n c #00A6E5",
"m c #00A7E5",
"M c #00A7E6",
"N c #00A8E6",
"B c #00AFEC",
"V c None",
/* pixels */
"VVVVVVVVVVVVBBBBBBBBVVVVVVVVVVVV",
"VVVVVVVVVVVVVVVVVVVVVVVVVVVVVVVV",
"VVVVVVVNNnNNNNNNNNNNNNnNNVVVVVVV",
"VVVVVVVnnnnnnnnnnnnnnnnnnnVVVVVV",
"VVVVVVVVVVVVVVVVVVVVVVVVVVVVVVVV",
"VVVVvcccccccccccccccccccccccVVVV",
"VVVVlcclcllcclclcclccclcccccVVVV",
"VVVVVVVVVVVVVVVVVVVVVVVVVVVVVVVV",
"VVVVVVVVVVVVVVVVVVVVVVVVkkkkkkVV",
"VVVVVVVVVVVVVVVVVVVVVVVVVVVVVVVV",
"VVVVVVVVVVVVVVVVVVVVVVVVVVVVVVVV",
"VgVVVVVVVVVVVVVVVVVVVVVVVVjjjjjV",
"ffffffffffffffffgfffdVVVVVVVVVVV",
"ddddddddddddddddddddddVVVVVddddd",
"ssssssssssssssssssssssVVVVVsssss",
"aaaaaaaaaaaaaaaaasppaVVVVVVVVVVV",
"auuuuuuauaVVVVVVVVVVVVVVVVauuauu",
"yyyyyyyyyVVVVVVVVVVVVVVVVVVVVVVV",
"ereyryyerVVVVVVVVVVVVVVVVVVVVVVV",
"eeeeeeeyeVVVVVVVVVVVVVVVreeeeeee",
"VwwwqeqqqVVVVVVVVVVVVVVVVVVVVVVV",
"V6qqq6qqqqVVVVVVVVV6qq6q6qq66qqV",
"V76677777666VVVVVVV666666666667V",
"VV44443444447VVVVVVVVVVVVVVVVVVV",
"VV333222333223VVVVVVVV11331311VV",
"VVV,,,,,,1,,,,,VVVVVVVVVVVVVVVVV",
"VVVV;==;=;;==;;;VVVVVVVVVVVVVVVV",
"VVVVV***===*****=VVVVVVVV**VVVVV",
"VVVVVV%*%$$$$$%%$%%VVVVVVVVVVVVV",
"VVVVVVVo++OOOOO+OOo$VVVVVVVVVVVV",
"VVVVVVVVVooo o +oooooVVVVVVVVVVV",
"VVVVVVVVVVVV.........VVVVVVVVVVV"
};
