/* XPM */
static char *Free_Converter_com_16x16_59895319[] = {
/* columns rows colors chars-per-pixel */
"16 16 45 1 ",
"  c #014A9F",
". c #024A9F",
"X c #024BA0",
"o c #0550A4",
"O c #0551A4",
"+ c #0551A5",
"@ c #0453A6",
"# c #0759A9",
"$ c #075AAA",
"% c #015FAE",
"& c #0858A8",
"* c #0160AE",
"= c #0161AF",
"- c #0063B1",
"; c #0064B2",
": c #0065B2",
"> c #0065B3",
", c #0065B4",
"< c #0066B4",
"1 c #0067B4",
"2 c #006AB6",
"3 c #006AB8",
"4 c #006BB8",
"5 c #006CB9",
"6 c #006DB9",
"7 c #0073BE",
"8 c #007AC3",
"9 c #007AC4",
"0 c #007BC5",
"q c #0080C8",
"w c #0081C9",
"e c #0086CC",
"r c #0086CD",
"t c #0087CE",
"y c #0088CE",
"u c #0098DB",
"i c #009ADC",
"p c #009DDE",
"a c #009EDF",
"s c #009FDF",
"d c #009FE0",
"f c #00A0E0",
"g c #00A1E1",
"h c #00A6E5",
"j c None",
/* pixels */
"jjjjjjjjjjjjjjjj",
"jjjjhjjjjjjhjjjj",
"jjpppddppdpfffjj",
"jjfjjjjjjjjjiijj",
"jjjjjjjjjjjjjjjj",
"jjjjjjjjjjjjjjjj",
"tttttyytyyyjjjtt",
"wwwww0ww0wwjjjw0",
"99980jjjjjjjjjjj",
"7778jjjjjjjjjjjj",
"44444jjjjj4j444j",
"j11111jjjj1;;;;j",
"j%%****jjjjjjjjj",
"jj######jjjjjjjj",
"jjjOOOOO@Ojjjjjj",
"jjjjj X  Xjjjjjj"
};
