/* XPM */
static char *Free_Converter_com_64x64_1285319[] = {
/* columns rows colors chars-per-pixel */
"64 64 115 2 ",
"   c #01489E",
".  c #014A9F",
"X  c #024B9F",
"o  c #034BA0",
"O  c #034CA0",
"+  c #034DA1",
"@  c #034EA1",
"#  c #034EA2",
"$  c #034FA3",
"%  c #0350A3",
"&  c #0451A4",
"*  c #0452A4",
"=  c #0452A5",
"-  c #0453A5",
";  c #0553A5",
":  c #0554A6",
">  c #0654A7",
",  c #0655A7",
"<  c #0656A7",
"1  c #0758A8",
"2  c #0759A8",
"3  c #0758A9",
"4  c #0759A9",
"5  c #075AA9",
"6  c #0759AA",
"7  c #055BAB",
"8  c #075AAA",
"9  c #055CAB",
"0  c #065BAC",
"q  c #035DAD",
"w  c #015EAD",
"e  c #015FAD",
"r  c #025EAD",
"t  c #005FAE",
"y  c #015FAE",
"u  c #0061AF",
"i  c #0061B0",
"p  c #0062B1",
"a  c #0063B1",
"s  c #0064B2",
"d  c #0065B2",
"f  c #0064B3",
"g  c #0065B3",
"h  c #0067B4",
"j  c #0067B5",
"k  c #0068B5",
"l  c #0068B6",
"z  c #0069B6",
"x  c #006AB7",
"c  c #006CB8",
"v  c #006DBA",
"b  c #006EBA",
"n  c #006EBB",
"m  c #006FBB",
"M  c #0070BC",
"N  c #0071BC",
"B  c #0071BD",
"V  c #0073BD",
"C  c #0073BE",
"Z  c #0074BE",
"A  c #0074BF",
"S  c #0075BF",
"D  c #0075C0",
"F  c #0076C0",
"G  c #0076C1",
"H  c #0078C1",
"J  c #0078C2",
"K  c #0079C2",
"L  c #0079C3",
"P  c #007AC4",
"I  c #007AC5",
"U  c #007BC5",
"Y  c #007CC5",
"T  c #007DC5",
"R  c #007DC6",
"E  c #007EC6",
"W  c #007FC8",
"Q  c #0080C8",
"!  c #0081C9",
"~  c #0082CA",
"^  c #0083CA",
"/  c #0083CB",
"(  c #0084CC",
")  c #0085CD",
"_  c #0086CD",
"`  c #0087CE",
"'  c #0088CE",
"]  c #0089D0",
"[  c #008BD0",
"{  c #008BD1",
"}  c #018BD1",
"|  c #028DD3",
" . c #0092D7",
".. c #0093D7",
"X. c #0093D8",
"o. c #0094D8",
"O. c #0095D8",
"+. c #0095D9",
"@. c #0096D9",
"#. c #0096DA",
"$. c #009CDE",
"%. c #009DDE",
"&. c #009FDF",
"*. c #009EE0",
"=. c #009FE0",
"-. c #00A0E0",
";. c #00A6E4",
":. c #00A6E5",
">. c #00A7E5",
",. c #00A8E6",
"<. c #00ADEB",
"1. c #00AEEB",
"2. c #00AFEC",
"3. c #00B0EC",
"4. c None",
/* pixels */
"4.4.4.4.4.4.4.4.4.4.4.4.4.4.4.4.4.4.4.4.4.4.4.4.4.4.3.2.3.3.2.2.2.2.2.2.3.3.4.4.4.4.4.4.4.4.4.4.4.4.4.4.4.4.4.4.4.4.4.4.4.4.4.4.",
"4.4.4.4.4.4.4.4.4.4.4.4.4.4.4.4.4.4.4.4.4.4.<.<.<.<.<.<.<.<.<.<.<.<.<.<.<.<.<.<.<.<.4.4.4.4.4.4.4.4.4.4.4.4.4.4.4.4.4.4.4.4.4.4.",
"4.4.4.4.4.4.4.4.4.4.4.4.4.4.4.4.4.4.4.4.4.4.4.4.4.4.4.4.4.4.4.4.4.4.4.4.4.4.4.4.4.4.4.4.4.4.4.4.4.4.4.4.4.4.4.4.4.4.4.4.4.4.4.4.",
"4.4.4.4.4.4.4.4.4.4.4.4.4.4.4.4.4.4.4.4.4.4.4.4.4.4.4.4.4.4.4.4.4.4.4.4.4.4.4.4.4.4.4.4.4.4.4.4.4.4.4.4.4.4.4.4.4.4.4.4.4.4.4.4.",
"4.4.4.4.4.4.4.4.4.4.4.4.4.4.4.4.4.4.4.4.4.4.4.4.4.4.4.4.4.4.4.4.4.4.4.4.4.4.4.4.4.4.4.4.4.4.4.4.4.4.4.4.4.4.4.4.4.4.4.4.4.4.4.4.",
"4.4.4.4.4.4.4.4.4.4.4.4.4.4.,.,.,.,.,.,.,.,.,.,.,.,.,.,.,.,.,.,.,.,.,.,.,.,.,.,.,.,.,.,.,.,.,.,.,.,.4.4.4.4.4.4.4.4.4.4.4.4.4.4.",
"4.4.4.4.4.4.4.4.4.4.4.4.:.:.:.:.:.:.:.:.:.:.:.:.:.:.:.:.:.:.:.:.:.:.:.:.:.:.:.:.:.:.:.:.:.:.:.:.:.:.:.:.4.4.4.4.4.4.4.4.4.4.4.4.",
"4.4.4.4.4.4.4.4.4.4.4.4.:.4.4.4.4.4.4.4.4.4.4.4.4.4.4.4.4.4.4.4.4.4.4.4.4.4.4.4.4.4.4.4.4.4.4.4.4.4.4.:.4.4.4.4.4.4.4.4.4.4.4.4.",
"4.4.4.4.4.4.4.4.4.4.4.4.4.4.4.4.4.4.4.4.4.4.4.4.4.4.4.4.4.4.4.4.4.4.4.4.4.4.4.4.4.4.4.4.4.4.4.4.4.4.4.4.4.4.4.4.4.4.4.4.4.4.4.4.",
"4.4.4.4.4.4.4.4.4.4.4.4.4.4.4.4.4.4.4.4.4.4.4.4.4.4.4.4.4.4.4.4.4.4.4.4.4.4.4.4.4.4.4.4.4.4.4.4.4.4.4.4.4.4.4.4.4.4.4.4.4.4.4.4.",
"4.4.4.4.4.4.4.4.-.=.-.=.=.=.-.-.=.=.-.=.-.=.=.=.-.-.=.=.-.-.=.=.=.=.-.-.=.=.-.=.=.=.-.-.=.=.-.=.-.-.=.=.-.-.=.-.4.4.4.4.4.4.4.4.",
"4.4.4.4.4.4.4.$.=.=.=.=.=.=.=.=.=.=.=.=.=.=.=.=.=.=.=.=.=.=.=.=.=.=.=.=.=.=.=.=.=.=.=.=.=.=.=.=.=.=.=.=.=.=.=.=.-.4.4.4.4.4.4.4.",
"4.4.4.4.4.4.4.$.$.$.$.$.$.$.$.$.$.$.$.$.$.$.$.$.$.$.$.$.$.$.$.$.$.$.$.$.$.$.$.$.$.$.$.$.$.$.$.$.$.$.$.$.$.$.$.$.$.$.4.4.4.4.4.4.",
"4.4.4.4.4.4.4.4.4.4.4.4.4.4.4.4.4.4.4.4.4.4.4.4.4.4.4.4.4.4.4.4.4.4.4.4.4.4.4.4.4.4.4.4.4.4.4.4.4.4.4.4.4.4.4.4.4.4.4.4.4.4.4.4.",
"4.4.4.4.4.4.4.4.4.4.4.4.4.4.4.4.4.4.4.4.4.4.4.4.4.4.4.4.4.4.4.4.4.4.4.4.4.4.4.4.4.4.4.4.4.4.4.4.4.4.4.4.4.4.4.4.4.4.4.4.4.4.4.4.",
"4.4.4.4.4.4.4.4.4.4.4.4.4.4.4.4.4.4.4.4.4.4.4.4.4.4.4.4.4.4.4.4.4.4.4.4.4.4.4.4.4.4.4.4.4.4.4.4.4.4.4.4.4.4.4.4.4.4.4.4.4.4.4.4.",
"4.4.4.4.4.4.4.4.4.4.4.4.4.4.4.4.4.4.4.4.4.4.4.4.4.4.4.4.4.4.4.4.4.4.4.4.4.4.4.4.4.4.4.4.4.4.4.4.#.#.O.#.#.O.#.O.#.O.#.O.4.4.4.4.",
"4.4.4.4.4.4.4.4.4.4.4.4.4.4.4.4.4.4.4.4.4.4.4.4.4.4.4.4.4.4.4.4.4.4.4.4.4.4.4.4.4.4.4.4.4.4.4.4.4.#.O.O.O.#.O.O.O.O.O.#.#.4.4.4.",
"4.4.4.4.4.4.4.4.4.4.4.4.4.4.4.4.4.4.4.4.4.4.4.4.4.4.4.4.4.4.4.4.4.4.4.4.4.4.4.4.4.4.4.4.4.4.4.4.4.4. . .X.X.X.X.O.X.X.X. .4.4.4.",
"4.4.4.4.4.4.4.4.4.4.4.4.4.4.4.4.4.4.4.4.4.4.4.4.4.4.4.4.4.4.4.4.4.4.4.4.4.4.4.4.4.4.4.4.4.4.4.4.4.4.4.4.4.4.4.4.4.4.4.4.4.4.4.4.",
"4.4.4.4.4.4.4.4.4.4.4.4.4.4.4.4.4.4.4.4.4.4.4.4.4.4.4.4.4.4.4.4.4.4.4.4.4.4.4.4.4.4.4.4.4.4.4.4.4.4.4.4.4.4.4.4.4.4.4.4.4.4.4.4.",
"4.4.4.4.4.4.4.4.4.4.4.4.4.4.4.4.4.4.4.4.4.4.4.4.4.4.4.4.4.4.4.4.4.4.4.4.4.4.4.4.4.4.4.4.4.4.4.4.4.4.4.4.4.| 4.4.4.4.4.4.4.| 4.4.",
"4.4.4.4.4.4.4.4.4.4.4.4.4.4.4.4.4.4.4.4.4.4.4.4.4.4.4.4.4.4.4.4.4.4.4.4.4.4.4.4.4.4.4.4.4.4.4.4.4.4.4.4.| | | | | | } | | | | 4.",
"4.} } } } } } } } } } { { { { { } } } } } } } } } } } } } } } } } } } } { { { { { 4.4.4.4.4.4.4.4.4.4.4.4.{ { { } } } } } } } 4.",
"4.{ { ' ' ' { { ` { ` { ' ' { { { ' { ` ' ' { { ` { ` { ' ' { { { { ` { ` { ` { ` ' 4.4.4.4.4.4.4.4.4.4.4.4.4.4.4.4.4.4.4.4.4.4.",
"4.' ` ` ` ` ` ` ` ` ` ` ` ` ` ` ` ` ` ` ` ` ` ` ` ` ` ` ` ` ` ` ` ` ` ` ` ` ` ` ` ` ' 4.4.4.4.4.4.4.4.4.4.4.4.4.4.4.4.4.4.4.4.4.",
"` ` ` ` ` ` ( ` ` ` ` / ` ` ` ( ` ` ` ` ` ` ` ( ` ` ` / ` ` ` ( ` ` ` ` ` ` ` / ` ` ` 4.4.4.4.4.4.4.4.4.4.4.` / ` ` / / / ` ` 4.",
"/ / / / ( ( / / / ` / / ( / / / / / / / ( / / / / ` / / ( / / / / / / / / ` / / / ` / / 4.4.4.4.4.4.4.4.4.` / ` ` / / ` / / / ` ",
"/ / / / / / / / / / / / / / / / / / / / / / / / / / / / / / / / / / / / / / / / / / / / 4.4.4.4.4.4.4.4.4.4./ / / / / / / / / / ",
"W / / / / E / / / W / / / E / / W / / / / E / / / W / / / E / / / / E / W / / W E / / 4.4.4.4.4.4.4.4.4.4.4.4.4.4.4.4.4.4.4.4.4.",
"W / E E E / E E W W W W E E / E W / E W E E / E W W W W E E / E E E / E W W W W / E W 4.4.4.4.4.4.4.4.4.4.4.4.4.4.4.4.4.4.4.4.4.",
"E E E E E E E E E E E E E E E E E E E E E E E E E E E E E E E E E E E E E E E E E E 4.4.4.4.4.4.4.4.4.4.4.4.4.4.4.4.4.4.4.4.4.4.",
"E E E E E E E E E E E E E E E E E U E E U E U E U E U E U E E E E U E U U E U U 4.4.4.4.4.4.4.4.4.4.4.4.4.E E E E E E E E U E E ",
"L U L U L U L U L U L U L U L U L U U U 4.4.4.4.4.4.4.4.4.4.4.4.4.4.4.4.4.4.4.4.4.4.4.4.4.4.4.4.4.4.4.4.L U U L L U L U U L U U ",
"L L L L L L L L L L L L L L L L L L L 4.4.4.4.4.4.4.4.4.4.4.4.4.4.4.4.4.4.4.4.4.4.4.4.4.4.4.4.4.4.4.4.4.L L L L J U L L L L J J ",
"J J J J J J J J J J J J J J J L J J 4.4.4.4.4.4.4.4.4.4.4.4.4.4.4.4.4.4.4.4.4.4.4.4.4.4.4.4.4.4.4.4.4.4.4.4.4.4.4.4.4.4.4.4.4.4.",
"Z J Z J J Z J J Z J Z J J Z J J Z J 4.4.4.4.4.4.4.4.4.4.4.4.4.4.4.4.4.4.4.4.4.4.4.4.4.4.4.4.4.4.4.4.4.4.4.4.4.4.4.4.4.4.4.4.4.4.",
"J B Z B B J B Z J B Z B D B B B Z 4.4.4.4.4.4.4.4.4.4.4.4.4.4.4.4.4.4.4.4.4.4.4.4.4.4.4.4.4.4.4.4.4.Z Z Z Z Z Z Z Z Z Z Z Z Z 4.",
"4.B Z B B Z Z B Z B Z B B J D D B 4.4.4.4.4.4.4.4.4.4.4.4.4.4.4.4.4.4.4.4.4.4.4.4.4.4.4.4.4.4.4.4.B Z Z B Z Z N Z Z Z N Z B B Z ",
"4.B B B m B B m B B B B B n n n B B 4.4.4.4.4.4.4.4.4.4.4.4.4.4.4.4.4.4.4.4.4.4.4.4.4.4.4.4.4.4.B B N N B N N N N N N N N B B 4.",
"4.m m m m n n n n n n n n B n n m m 4.4.4.4.4.4.4.4.4.4.4.4.4.4.4.4.4.4.4.4.4.4.4.4.4.4.4.4.4.4.4.4.4.4.4.4.4.4.4.4.4.4.4.4.4.4.",
"4.m m m c c m m c c n n c m c c m m m 4.4.4.4.4.4.4.4.4.4.4.4.4.4.4.4.4.4.4.4.4.4.4.4.4.4.4.4.4.4.4.4.4.4.4.4.4.4.4.4.4.4.4.4.4.",
"4.4.m c k m k m c c c c c c c c k m k m 4.4.4.4.4.4.4.4.4.4.4.4.4.4.4.4.4.4.4.4.4.4.4.4.4.4.4.4.4.4.4.4.4.4.4.4.4.4.4.4.4.4.4.4.",
"4.4.l k c k c k c c k c c k c c k c c k c k 4.4.4.4.4.4.4.4.4.4.4.4.4.4.4.c c k k c c k c k c c c k c c k c c c k c k c k c 4.4.",
"4.4.k l l l l l k k k k l l k k k k k k k k k 4.4.4.4.4.4.4.4.4.4.4.4.4.4.4.k k k k k k k k k k k k k k k k k k k k k k k k 4.4.",
"4.4.4.l l l l l h h k k l l k g k k k h l l l l 4.4.4.4.4.4.4.4.4.4.4.4.4.4.4.4.4.4.4.4.4.4.4.4.4.4.4.4.4.4.4.4.4.4.4.4.4.4.4.4.",
"4.4.4.g g g p g g g g g g g g g g g g a g g g g g 4.4.4.4.4.4.4.4.4.4.4.4.4.4.4.4.4.4.4.4.4.4.4.4.4.4.4.4.4.4.4.4.4.4.4.4.4.4.4.",
"4.4.4.4.u g p u a a u g u u g u g p a a a p p p p g 4.4.4.4.4.4.4.4.4.4.4.4.4.4.4.4.4.4.4.4.4.4.4.4.4.4.4.4.4.4.4.4.4.4.4.4.4.4.",
"4.4.4.4.p p p p p p p p p p p p p p p p p p p p p p p 4.4.4.4.4.4.4.4.4.4.4.4.4.4.4.4.p p p p p p p p p p p p p p p p p 4.4.4.4.",
"4.4.4.4.4.p u u u u u u u u u u u u u u u u u u u u u u 4.4.4.4.4.4.4.4.4.4.4.4.4.4.4.u u u u u p u u u u u u u u u u 4.4.4.4.4.",
"4.4.4.4.4.4.r r r r r r r r r r u 9 9 u u u r r r r r u r r 4.4.4.4.4.4.4.4.4.4.4.4.4.4.4.r u r r r q u u r r r r r 4.4.4.4.4.4.",
"4.4.4.4.4.4.4.r r r r r r r r r r r 9 9 5 r r r r r r 9 r r r 4.4.4.4.4.4.4.4.4.4.4.4.4.4.4.4.4.4.4.4.4.4.4.4.4.4.4.4.4.4.4.4.4.",
"4.4.4.4.4.4.4.0 7 9 9 5 8 8 9 7 9 9 5 9 7 7 7 8 8 7 2 7 7 7 2 9 4.4.4.4.4.4.4.4.4.4.4.4.4.4.4.4.4.4.4.4.4.4.4.4.4.4.4.4.4.4.4.4.",
"4.4.4.4.4.4.4.4.5 5 5 5 8 8 8 8 5 5 5 5 5 8 8 8 8 8 5 5 5 5 5 5 8 4.4.4.4.4.4.4.4.4.4.4.4.4.4.4.4.5 5 5 5 5 5 5 4.4.4.4.4.4.4.4.",
"4.4.4.4.4.4.4.4.4.5 5 5 5 5 5 5 5 < 5 5 5 5 8 8 5 5 5 5 5 5 5 5 5 5 4.4.4.4.4.4.4.4.4.4.4.4.4.4.4.5 1 5 5 5 5 4.4.4.4.4.4.4.4.4.",
"4.4.4.4.4.4.4.4.4.4.- 5 > > > > 5 > : > > > 8 > > > > 5 : : > 5 > > > 4.4.4.4.4.4.4.4.4.4.4.4.4.4.4.> > > > 4.4.4.4.4.4.4.4.4.4.",
"4.4.4.4.4.4.4.4.4.4.4.> > > > > > > > > > > > > > > > = > > > > > > > > 4.4.4.4.4.4.4.4.4.4.4.4.4.4.4.> > 4.4.4.4.4.4.4.4.4.4.4.",
"4.4.4.4.4.4.4.4.4.4.4.4.% * : > = * = > : % = = > = > = : % > * - > : : : : 4.4.4.4.4.4.4.4.4.4.4.4.4.4.4.4.4.4.4.4.4.4.4.4.4.4.",
"4.4.4.4.4.4.4.4.4.4.4.4.4.4.* * * * * * % % * * % % * * % % % * * * * % * % * 4.4.4.4.4.4.4.4.4.4.4.4.4.4.4.4.4.4.4.4.4.4.4.4.4.",
"4.4.4.4.4.4.4.4.4.4.4.4.4.4.4.O $ $ $ % % % % $ % % % % % % $ % * O O % % % O * 4.4.4.4.4.4.4.4.4.4.4.4.4.4.4.4.4.4.4.4.4.4.4.4.",
"4.4.4.4.4.4.4.4.4.4.4.4.4.4.4.4.4.O $ O O % O O $ $ $ O O O % $ $ % O O $ O $ $ O 4.4.4.4.4.4.4.4.4.4.4.4.4.4.4.4.4.4.4.4.4.4.4.",
"4.4.4.4.4.4.4.4.4.4.4.4.4.4.4.4.4.4.4.O O O O O o O O O O o O O O O O o O O O O O O 4.4.4.4.4.4.4.4.4.4.4.4.4.4.4.4.4.4.4.4.4.4.",
"4.4.4.4.4.4.4.4.4.4.4.4.4.4.4.4.4.4.4.4.4.4.. . o o o o . . . . o o . . . . o o . . X 4.4.4.4.4.4.4.4.4.4.4.4.4.4.4.4.4.4.4.4.4.",
"4.4.4.4.4.4.4.4.4.4.4.4.4.4.4.4.4.4.4.4.4.4.4.4.4.                            4.4.4.4.4.4.4.4.4.4.4.4.4.4.4.4.4.4.4.4.4.4.4.4.4."
};
